<svg width="611" height="63" viewBox="0 0 611 63" fill="none" xmlns="http://www.w3.org/2000/svg">
<path d="M600 12V8H596V4H592V0H12V4H8V8H4V12H0V63H611V23H607V19H604V12H600Z" fill="#1E1E1E"/>
<path d="M4 51V12H8V8H12V4H592V8H596V12H600V51V59H592.119H11.881H4V51Z" fill="#AF5AD3"/>
<path d="M549 42V47H570V42H575V22H570V17H549V22H544V42H549Z" fill="#1E1E1E"/>
<rect x="549" y="22" width="21" height="20" fill="#D9D9D9"/>
<path d="M505 42V47H526V42H531V22H526V17H505V22H500V42H505Z" fill="#1E1E1E"/>
<rect x="505" y="22" width="21" height="20" fill="#D9D9D9"/>
<path d="M461 42V47H482V42H487V22H482V17H461V22H456V42H461Z" fill="#1E1E1E"/>
<rect x="461" y="22" width="21" height="20" fill="#D9D9D9"/>
</svg>
