<svg width="611" height="323" viewBox="0 0 611 323" fill="none" xmlns="http://www.w3.org/2000/svg">
<path d="M10.8407 22.5948L607.058 22.3379V319.554H10.8407V22.5948Z" fill="#1E1E1E"/>
<rect x="543.987" y="18.892" width="63.0709" height="3.44598" fill="#1E1E1E"/>
<rect x="543.001" y="15.446" width="60.1145" height="3.44598" fill="#1E1E1E"/>
<path d="M10.8407 66.2742H607.058V62.8282H10.8407V66.2742Z" fill="#1E1E1E"/>
<path d="M18.7246 15.446H599.174V12.0001H18.7246V15.446Z" fill="#1E1E1E"/>
<rect x="607.058" y="22.3379" width="3.94193" height="297.216" fill="#1E1E1E"/>
<rect width="3.94193" height="297.216" transform="matrix(-1 0 0 1 10.8407 22.3379)" fill="#1E1E1E"/>
<path d="M10.8407 323H607.058V319.554H10.8407V323Z" fill="#1E1E1E"/>
<path d="M3.94214 12L11.8268 4H592.331L600.216 12V51V59H592.331H11.8268H3.94214V51V12Z" fill="#AF5AD3"/>
<path d="M3.99976 62.2161L600 62V312H3.99976V62.2161Z" fill="#B4D82A"/>
<rect x="596.274" y="8" width="3.94231" height="4" fill="#1E1E1E"/>
<rect x="592.332" y="4" width="3.94231" height="4" fill="#1E1E1E"/>
<rect width="3.94231" height="4" transform="matrix(-1 0 0 1 7.8844 8)" fill="#1E1E1E"/>
<rect width="3.94231" height="4" transform="matrix(-1 0 0 1 11.8268 4)" fill="#1E1E1E"/>
<path d="M3.94214 63H600.216V59H3.94214V63Z" fill="#1E1E1E"/>
<path d="M11.8268 4H592.332V0H11.8268V4Z" fill="#1E1E1E"/>
<rect x="600.079" y="12" width="4" height="300" fill="#1E1E1E"/>
<rect width="4" height="300" transform="matrix(-1 0 0 1 4.07935 12)" fill="#1E1E1E"/>
<path d="M3.94214 316H600.216V312H3.94214V316Z" fill="#1E1E1E"/>
<rect width="21.2278" height="4.61538" transform="matrix(1 0 0 -1 548.814 47)" fill="#1E1E1E"/>
<rect width="4.54882" height="20" transform="matrix(1 0 0 -1 544.266 42.3846)" fill="#1E1E1E"/>
<rect width="4.54882" height="20" transform="matrix(1 0 0 -1 570.042 42.3846)" fill="#1E1E1E"/>
<rect width="21.2278" height="4.61538" transform="matrix(1 0 0 -1 548.814 22.3846)" fill="#1E1E1E"/>
<rect x="548.814" y="22.3846" width="21.2278" height="20" fill="#D9D9D9"/>
<rect width="21.2278" height="4.61538" transform="matrix(1 0 0 -1 504.843 46.2307)" fill="#1E1E1E"/>
<rect width="4.54882" height="20" transform="matrix(1 0 0 -1 500.294 41.6154)" fill="#1E1E1E"/>
<rect width="4.54882" height="20" transform="matrix(1 0 0 -1 526.07 41.6154)" fill="#1E1E1E"/>
<rect width="21.2278" height="4.61538" transform="matrix(1 0 0 -1 504.843 21.6154)" fill="#1E1E1E"/>
<rect x="504.843" y="21.6154" width="21.2278" height="20" fill="#D9D9D9"/>
<rect width="21.2278" height="4.61538" transform="matrix(1 0 0 -1 460.871 46.2307)" fill="#1E1E1E"/>
<rect width="4.54882" height="20" transform="matrix(1 0 0 -1 456.322 41.6154)" fill="#1E1E1E"/>
<rect width="4.54882" height="20" transform="matrix(1 0 0 -1 482.098 41.6154)" fill="#1E1E1E"/>
<rect width="21.2278" height="4.61538" transform="matrix(1 0 0 -1 460.871 21.6154)" fill="#1E1E1E"/>
<rect x="460.871" y="21.6154" width="21.2278" height="20" fill="#D9D9D9"/>
</svg>
