<svg width="611" height="532" viewBox="0 0 611 532" fill="none" xmlns="http://www.w3.org/2000/svg">
<path d="M10.8409 29.7149L607.058 29.2854V526.238H10.8409V29.7149Z" fill="#1E1E1E"/>
<rect x="543.987" y="23.5236" width="63.0709" height="5.76177" fill="#1E1E1E"/>
<rect x="543.002" y="17.7618" width="60.1145" height="5.76177" fill="#1E1E1E"/>
<path d="M10.8409 102.748H607.058V96.9862H10.8409V102.748Z" fill="#1E1E1E"/>
<path d="M18.7248 17.7618H599.174V12H18.7248V17.7618Z" fill="#1E1E1E"/>
<rect x="607.058" y="29.2854" width="3.94193" height="496.953" fill="#1E1E1E"/>
<rect width="3.94193" height="496.953" transform="matrix(-1 0 0 1 10.8409 29.2854)" fill="#1E1E1E"/>
<path d="M10.8409 532H607.058V526.238H10.8409V532Z" fill="#1E1E1E"/>
<path d="M3.94232 12L11.8269 4H592.332L600.216 12V51V59H592.332H11.8269H3.94232V51V12Z" fill="#A66CFF"/>
<path d="M4 62.3941L600 62V518H4V62.3941Z" fill="#00F0FF"/>
<rect x="596.274" y="8" width="3.94231" height="4" fill="#1E1E1E"/>
<rect x="592.332" y="4" width="3.94231" height="4" fill="#1E1E1E"/>
<rect width="3.94231" height="4" transform="matrix(-1 0 0 1 7.88464 8)" fill="#1E1E1E"/>
<rect width="3.94231" height="4" transform="matrix(-1 0 0 1 11.8269 4)" fill="#1E1E1E"/>
<path d="M3.94232 63H600.216V59H3.94232V63Z" fill="#1E1E1E"/>
<path d="M11.8269 4H592.332V0H11.8269V4Z" fill="#1E1E1E"/>
<rect x="600.079" y="12" width="4" height="506" fill="#1E1E1E"/>
<rect width="4" height="506" transform="matrix(-1 0 0 1 4.07935 12)" fill="#1E1E1E"/>
<path d="M4 522H600.274V518H4V522Z" fill="#1E1E1E"/>
<rect width="21.2278" height="4.61538" transform="matrix(1 0 0 -1 548.815 47)" fill="#1E1E1E"/>
<rect width="4.54882" height="20" transform="matrix(1 0 0 -1 544.266 42.3846)" fill="#1E1E1E"/>
<rect width="4.54882" height="20" transform="matrix(1 0 0 -1 570.043 42.3846)" fill="#1E1E1E"/>
<rect width="21.2278" height="4.61538" transform="matrix(1 0 0 -1 548.815 22.3846)" fill="#1E1E1E"/>
<rect x="548.815" y="22.3846" width="21.2278" height="20" fill="#D9D9D9"/>
<rect width="21.2278" height="4.61538" transform="matrix(1 0 0 -1 504.843 46.2308)" fill="#1E1E1E"/>
<rect width="4.54882" height="20" transform="matrix(1 0 0 -1 500.294 41.6154)" fill="#1E1E1E"/>
<rect width="4.54882" height="20" transform="matrix(1 0 0 -1 526.071 41.6154)" fill="#1E1E1E"/>
<rect width="21.2278" height="4.61538" transform="matrix(1 0 0 -1 504.843 21.6154)" fill="#1E1E1E"/>
<rect x="504.843" y="21.6154" width="21.2278" height="20" fill="#D9D9D9"/>
<rect width="21.2278" height="4.61538" transform="matrix(1 0 0 -1 460.871 46.2308)" fill="#1E1E1E"/>
<rect width="4.54882" height="20" transform="matrix(1 0 0 -1 456.322 41.6154)" fill="#1E1E1E"/>
<rect width="4.54882" height="20" transform="matrix(1 0 0 -1 482.099 41.6154)" fill="#1E1E1E"/>
<rect width="21.2278" height="4.61538" transform="matrix(1 0 0 -1 460.871 21.6154)" fill="#1E1E1E"/>
<rect x="460.871" y="21.6154" width="21.2278" height="20" fill="#D9D9D9"/>
</svg>
