<svg width="611" height="431" viewBox="0 0 611 431" fill="none" xmlns="http://www.w3.org/2000/svg">
<path d="M10.8404 26.2741L607.058 25.928V426.357H10.8404V26.2741Z" fill="#1E1E1E"/>
<rect x="543.987" y="21.2853" width="63.0709" height="4.64266" fill="#1E1E1E"/>
<rect x="543.001" y="16.6427" width="60.1145" height="4.64266" fill="#1E1E1E"/>
<path d="M10.8404 85.1219H607.058V80.4792H10.8404V85.1219Z" fill="#1E1E1E"/>
<path d="M18.7243 16.6427H599.174V12H18.7243V16.6427Z" fill="#1E1E1E"/>
<rect x="607.058" y="25.928" width="3.94193" height="400.429" fill="#1E1E1E"/>
<rect width="3.94193" height="400.429" transform="matrix(-1 0 0 1 10.8404 25.928)" fill="#1E1E1E"/>
<path d="M10.8404 431H607.058V426.357H10.8404V431Z" fill="#1E1E1E"/>
<path d="M3.9418 12L11.8264 4H592.331L600.216 12V51V59H592.331H11.8264H3.9418V51V12Z" fill="#00C2A0"/>
<path d="M3.9995 62.3077L600 62V418H3.9995V62.3077Z" fill="#FFD814"/>
<rect x="596.274" y="8" width="3.94231" height="4" fill="#1E1E1E"/>
<rect x="592.332" y="4" width="3.94231" height="4" fill="#1E1E1E"/>
<rect width="3.94231" height="4" transform="matrix(-1 0 0 1 7.88411 8)" fill="#1E1E1E"/>
<rect width="3.94231" height="4" transform="matrix(-1 0 0 1 11.8264 4)" fill="#1E1E1E"/>
<path d="M3.9418 63H600.216V59H3.9418V63Z" fill="#1E1E1E"/>
<path d="M11.8264 4H592.331V0H11.8264V4Z" fill="#1E1E1E"/>
<rect x="600.079" y="12" width="4" height="406" fill="#1E1E1E"/>
<rect width="4" height="406" transform="matrix(-1 0 0 1 4.07928 12)" fill="#1E1E1E"/>
<path d="M3.9418 422H600.216V418H3.9418V422Z" fill="#1E1E1E"/>
<rect width="21.2278" height="4.61538" transform="matrix(1 0 0 -1 548.814 47)" fill="#1E1E1E"/>
<rect width="4.54882" height="20" transform="matrix(1 0 0 -1 544.265 42.3846)" fill="#1E1E1E"/>
<rect width="4.54882" height="20" transform="matrix(1 0 0 -1 570.042 42.3846)" fill="#1E1E1E"/>
<rect width="21.2278" height="4.61538" transform="matrix(1 0 0 -1 548.814 22.3846)" fill="#1E1E1E"/>
<rect x="548.814" y="22.3846" width="21.2278" height="20" fill="#D9D9D9"/>
<rect width="21.2278" height="4.61538" transform="matrix(1 0 0 -1 504.842 46.2308)" fill="#1E1E1E"/>
<rect width="4.54882" height="20" transform="matrix(1 0 0 -1 500.293 41.6154)" fill="#1E1E1E"/>
<rect width="4.54882" height="20" transform="matrix(1 0 0 -1 526.07 41.6154)" fill="#1E1E1E"/>
<rect width="21.2278" height="4.61538" transform="matrix(1 0 0 -1 504.842 21.6154)" fill="#1E1E1E"/>
<rect x="504.842" y="21.6154" width="21.2278" height="20" fill="#D9D9D9"/>
<rect width="21.2278" height="4.61538" transform="matrix(1 0 0 -1 460.87 46.2308)" fill="#1E1E1E"/>
<rect width="4.54882" height="20" transform="matrix(1 0 0 -1 456.321 41.6154)" fill="#1E1E1E"/>
<rect width="4.54882" height="20" transform="matrix(1 0 0 -1 482.098 41.6154)" fill="#1E1E1E"/>
<rect width="21.2278" height="4.61538" transform="matrix(1 0 0 -1 460.87 21.6154)" fill="#1E1E1E"/>
<rect x="460.87" y="21.6154" width="21.2278" height="20" fill="#D9D9D9"/>
</svg>
