<svg width="1030" height="63" viewBox="0 0 1030 63" fill="none" xmlns="http://www.w3.org/2000/svg">
<path d="M1018.99 12V8H1014.99V4H1011.6V0H12.0116V4H8.00774V8H4.00391V12H2.38419e-05V63L1030 63V23H1026V19H1023.01V12H1018.99Z" fill="#1E1E1E"/>
<path d="M4.00415 59V12H8L8 8H12L12 4H1010.98V8H1014.99V12H1018.99V59H4.00415Z" fill="#FFD814"/>
<path d="M968.087 45V50H988.106V45H993.111V25H988.106V20H968.087V25H963.082V45H968.087Z" fill="#1E1E1E"/>
<rect x="968.087" y="25" width="20.0194" height="20" fill="#D9D9D9"/>
<path d="M926.046 45V50H946.065V45H951.07V25H946.065V20H926.046V25H921.041V45H926.046Z" fill="#1E1E1E"/>
<rect x="926.046" y="25" width="20.0194" height="20" fill="#D9D9D9"/>
<path d="M883.005 45V50H903.024V45H908.029V25H903.024V20H883.005V25H878V45H883.005Z" fill="#1E1E1E"/>
<rect x="883.004" y="25" width="20.0194" height="20" fill="#D9D9D9"/>
</svg>
