<svg width="613" height="645" viewBox="0 0 613 645" fill="none" xmlns="http://www.w3.org/2000/svg">
<path d="M4 12L12 4H601L609 12V51V59H601H12H4V51V12Z" fill="#CB6C00"/>
<path d="M4 63L609 62.5V641H4V63Z" fill="#B4D82A"/>
<rect x="605" y="8" width="4" height="4" fill="#1E1E1E"/>
<rect x="601" y="4" width="4" height="4" fill="#1E1E1E"/>
<rect width="4" height="4" transform="matrix(-1 0 0 1 8 8)" fill="#1E1E1E"/>
<rect width="4" height="4" transform="matrix(-1 0 0 1 12 4)" fill="#1E1E1E"/>
<path d="M4 63H609V59H4V63Z" fill="#1E1E1E"/>
<path d="M12 4H601V0H12V4Z" fill="#1E1E1E"/>
<rect x="609" y="12" width="4" height="629" fill="#1E1E1E"/>
<rect width="4" height="629" transform="matrix(-1 0 0 1 4 12)" fill="#1E1E1E"/>
<path d="M0 645H613V641H0V645Z" fill="#1E1E1E"/>
<rect width="28" height="6" transform="matrix(1 0 0 -1 555 51)" fill="#1E1E1E"/>
<rect width="6" height="26" transform="matrix(1 0 0 -1 549 45)" fill="#1E1E1E"/>
<rect width="6" height="26" transform="matrix(1 0 0 -1 583 45)" fill="#1E1E1E"/>
<rect width="28" height="6" transform="matrix(1 0 0 -1 555 19)" fill="#1E1E1E"/>
<rect x="555" y="19" width="28" height="26" fill="#D9D9D9"/>
<rect width="28" height="6" transform="matrix(1 0 0 -1 497 50)" fill="#1E1E1E"/>
<rect width="6" height="26" transform="matrix(1 0 0 -1 491 44)" fill="#1E1E1E"/>
<rect width="6" height="26" transform="matrix(1 0 0 -1 525 44)" fill="#1E1E1E"/>
<rect width="28" height="6" transform="matrix(1 0 0 -1 497 18)" fill="#1E1E1E"/>
<rect x="497" y="18" width="28" height="26" fill="#D9D9D9"/>
<rect width="28" height="6" transform="matrix(1 0 0 -1 439 50)" fill="#1E1E1E"/>
<rect width="6" height="26" transform="matrix(1 0 0 -1 433 44)" fill="#1E1E1E"/>
<rect width="6" height="26" transform="matrix(1 0 0 -1 467 44)" fill="#1E1E1E"/>
<rect width="28" height="6" transform="matrix(1 0 0 -1 439 18)" fill="#1E1E1E"/>
<rect x="439" y="18" width="28" height="26" fill="#D9D9D9"/>
</svg>
