<svg width="611" height="369" viewBox="0 0 611 369" fill="none" xmlns="http://www.w3.org/2000/svg">
<path d="M10.841 24.1619L607.058 23.867V365.044H10.841V24.1619Z" fill="#1E1E1E"/>
<rect x="543.987" y="19.9114" width="63.0709" height="3.95568" fill="#1E1E1E"/>
<rect x="543.002" y="15.9557" width="60.1145" height="3.95568" fill="#1E1E1E"/>
<path d="M10.8409 74.3019H607.058V70.3463H10.8409V74.3019Z" fill="#1E1E1E"/>
<path d="M18.7248 15.9557H599.174V12H18.7248V15.9557Z" fill="#1E1E1E"/>
<rect x="607.058" y="23.867" width="3.94193" height="341.177" fill="#1E1E1E"/>
<rect width="3.94193" height="341.177" transform="matrix(-1 0 0 1 10.8409 23.867)" fill="#1E1E1E"/>
<path d="M10.8409 369H607.058V365.044H10.8409V369Z" fill="#1E1E1E"/>
<path d="M3.94231 12L11.8269 4H592.332L600.216 12V51V59H592.332H11.8269H3.94231V51V12Z" fill="#D97400"/>
<path d="M3.94231 62.255L600.216 62V357H3.94231V62.255Z" fill="#B4D82A"/>
<rect x="596.274" y="8" width="3.94231" height="4" fill="#1E1E1E"/>
<rect x="592.332" y="4" width="3.94231" height="4" fill="#1E1E1E"/>
<rect width="3.94231" height="4" transform="matrix(-1 0 0 1 7.88462 8)" fill="#1E1E1E"/>
<rect width="3.94231" height="4" transform="matrix(-1 0 0 1 11.8269 4)" fill="#1E1E1E"/>
<path d="M3.94231 63H600.216V59H3.94231V63Z" fill="#1E1E1E"/>
<path d="M11.8269 4H592.332V0H11.8269V4Z" fill="#1E1E1E"/>
<rect x="600.216" y="12" width="3.94231" height="345" fill="#1E1E1E"/>
<rect width="3.94231" height="345" transform="matrix(-1 0 0 1 3.94231 12)" fill="#1E1E1E"/>
<path d="M3.94231 361H600.216V357H3.94231V361Z" fill="#1E1E1E"/>
<rect width="21.2278" height="4.61538" transform="matrix(1 0 0 -1 548.815 47)" fill="#1E1E1E"/>
<rect width="4.54882" height="20" transform="matrix(1 0 0 -1 544.266 42.3846)" fill="#1E1E1E"/>
<rect width="4.54882" height="20" transform="matrix(1 0 0 -1 570.043 42.3846)" fill="#1E1E1E"/>
<rect width="21.2278" height="4.61538" transform="matrix(1 0 0 -1 548.815 22.3846)" fill="#1E1E1E"/>
<rect x="548.815" y="22.3846" width="21.2278" height="20" fill="#D9D9D9"/>
<rect width="21.2278" height="4.61538" transform="matrix(1 0 0 -1 504.843 46.2308)" fill="#1E1E1E"/>
<rect width="4.54882" height="20" transform="matrix(1 0 0 -1 500.294 41.6154)" fill="#1E1E1E"/>
<rect width="4.54882" height="20" transform="matrix(1 0 0 -1 526.071 41.6154)" fill="#1E1E1E"/>
<rect width="21.2278" height="4.61538" transform="matrix(1 0 0 -1 504.843 21.6154)" fill="#1E1E1E"/>
<rect x="504.843" y="21.6154" width="21.2278" height="20" fill="#D9D9D9"/>
<rect width="21.2278" height="4.61538" transform="matrix(1 0 0 -1 460.871 46.2308)" fill="#1E1E1E"/>
<rect width="4.54882" height="20" transform="matrix(1 0 0 -1 456.322 41.6154)" fill="#1E1E1E"/>
<rect width="4.54882" height="20" transform="matrix(1 0 0 -1 482.099 41.6154)" fill="#1E1E1E"/>
<rect width="21.2278" height="4.61538" transform="matrix(1 0 0 -1 460.871 21.6154)" fill="#1E1E1E"/>
<rect x="460.871" y="21.6154" width="21.2278" height="20" fill="#D9D9D9"/>
</svg>
