<svg width="560" height="63" viewBox="0 0 560 63" fill="none" xmlns="http://www.w3.org/2000/svg">
<path d="M549 12V8H545V4H541.619V0H12V4H8V8H4V12H0V63H560V23H556.007V19H553.012V12H549Z" fill="#1E1E1E"/>
<path d="M4 59V12H8V8H12V4H541V8H545V12H549V59H4Z" fill="#DD5555"/>
<path d="M506 42V47H526V42H531V22H526V17H506V22H501V42H506Z" fill="#1E1E1E"/>
<rect x="506" y="22" width="20" height="20" fill="#D9D9D9"/>
<path d="M464 42V47H484V42H489V22H484V17H464V22H459V42H464Z" fill="#1E1E1E"/>
<rect x="464" y="22" width="20" height="20" fill="#D9D9D9"/>
<path d="M421 42V47H441V42H446V22H441V17H421V22H416V42H421Z" fill="#1E1E1E"/>
<rect x="421" y="22" width="20" height="20" fill="#D9D9D9"/>
</svg>
