<svg width="613" height="361" viewBox="0 0 613 361" fill="none" xmlns="http://www.w3.org/2000/svg">
<path d="M4 12L12 4H601L609 12V51V59H601H12H4V51V12Z" fill="#D97400"/>
<path d="M4 62.255L609 62V357H4V62.255Z" fill="#B4D82A"/>
<rect x="605" y="8" width="4" height="4" fill="#1E1E1E"/>
<rect x="601" y="4" width="4" height="4" fill="#1E1E1E"/>
<rect width="4" height="4" transform="matrix(-1 0 0 1 8 8)" fill="#1E1E1E"/>
<rect width="4" height="4" transform="matrix(-1 0 0 1 12 4)" fill="#1E1E1E"/>
<path d="M4 63H609V59H4V63Z" fill="#1E1E1E"/>
<path d="M12 4H601V0H12V4Z" fill="#1E1E1E"/>
<rect x="609" y="12" width="4" height="345" fill="#1E1E1E"/>
<rect width="4" height="345" transform="matrix(-1 0 0 1 4 12)" fill="#1E1E1E"/>
<path d="M4 361H609V357H4V361Z" fill="#1E1E1E"/>
<rect width="21.5385" height="4.61538" transform="matrix(1 0 0 -1 556.846 47)" fill="#1E1E1E"/>
<rect width="4.61538" height="20" transform="matrix(1 0 0 -1 552.231 42.3846)" fill="#1E1E1E"/>
<rect width="4.61538" height="20" transform="matrix(1 0 0 -1 578.385 42.3846)" fill="#1E1E1E"/>
<rect width="21.5385" height="4.61538" transform="matrix(1 0 0 -1 556.846 22.3846)" fill="#1E1E1E"/>
<rect x="556.846" y="22.3846" width="21.5385" height="20" fill="#D9D9D9"/>
<rect width="21.5385" height="4.61538" transform="matrix(1 0 0 -1 512.231 46.2308)" fill="#1E1E1E"/>
<rect width="4.61538" height="20" transform="matrix(1 0 0 -1 507.615 41.6154)" fill="#1E1E1E"/>
<rect width="4.61538" height="20" transform="matrix(1 0 0 -1 533.769 41.6154)" fill="#1E1E1E"/>
<rect width="21.5385" height="4.61538" transform="matrix(1 0 0 -1 512.231 21.6154)" fill="#1E1E1E"/>
<rect x="512.231" y="21.6154" width="21.5385" height="20" fill="#D9D9D9"/>
<rect width="21.5385" height="4.61538" transform="matrix(1 0 0 -1 467.615 46.2308)" fill="#1E1E1E"/>
<rect width="4.61538" height="20" transform="matrix(1 0 0 -1 463 41.6154)" fill="#1E1E1E"/>
<rect width="4.61538" height="20" transform="matrix(1 0 0 -1 489.154 41.6154)" fill="#1E1E1E"/>
<rect width="21.5385" height="4.61538" transform="matrix(1 0 0 -1 467.615 21.6154)" fill="#1E1E1E"/>
<rect x="467.615" y="21.6154" width="21.5385" height="20" fill="#D9D9D9"/>
</svg>
