<svg width="611" height="448" viewBox="0 0 611 448" fill="none" xmlns="http://www.w3.org/2000/svg">
<path d="M10.7616 26.8533L606.979 26.4932V443.169H10.7616V26.8533Z" fill="#1E1E1E"/>
<rect x="543.908" y="21.662" width="63.0709" height="4.83103" fill="#1E1E1E"/>
<rect x="542.922" y="16.8311" width="60.1145" height="4.83103" fill="#1E1E1E"/>
<path d="M10.7616 88.0886H606.979V83.2576H10.7616V88.0886Z" fill="#1E1E1E"/>
<path d="M18.6455 16.8311H599.095V12H18.6455V16.8311Z" fill="#1E1E1E"/>
<rect x="606.979" y="26.4932" width="3.94193" height="416.676" fill="#1E1E1E"/>
<rect width="3.94193" height="416.676" transform="matrix(-1 0 0 1 10.7616 26.4932)" fill="#1E1E1E"/>
<path d="M10.7616 448H606.979V443.169H10.7616V448Z" fill="#1E1E1E"/>
<path d="M3.86304 12L11.7477 4H592.252L600.137 12V51V59H592.252H11.7477H3.86304V51V12Z" fill="#DD5555"/>
<path d="M3.92065 62.3224L599.921 62V435H3.92065V62.3224Z" fill="#B4D82A"/>
<rect x="596.195" y="8" width="3.94231" height="4" fill="#1E1E1E"/>
<rect x="592.252" y="4" width="3.94231" height="4" fill="#1E1E1E"/>
<rect width="3.94231" height="4" transform="matrix(-1 0 0 1 7.8053 8)" fill="#1E1E1E"/>
<rect width="3.94231" height="4" transform="matrix(-1 0 0 1 11.7476 4)" fill="#1E1E1E"/>
<path d="M3.86292 63H600.137V59H3.86292V63Z" fill="#1E1E1E"/>
<path d="M11.7476 4H592.252V0H11.7476V4Z" fill="#1E1E1E"/>
<rect x="600" y="12" width="4" height="423" fill="#1E1E1E"/>
<rect width="4" height="423" transform="matrix(-1 0 0 1 4 12)" fill="#1E1E1E"/>
<path d="M3.92065 439H600.195V435H3.92065V439Z" fill="#1E1E1E"/>
<rect width="21.2278" height="4.61538" transform="matrix(1 0 0 -1 548.735 47)" fill="#1E1E1E"/>
<rect width="4.54882" height="20" transform="matrix(1 0 0 -1 544.187 42.3846)" fill="#1E1E1E"/>
<rect width="4.54882" height="20" transform="matrix(1 0 0 -1 569.963 42.3846)" fill="#1E1E1E"/>
<rect width="21.2278" height="4.61538" transform="matrix(1 0 0 -1 548.735 22.3846)" fill="#1E1E1E"/>
<rect x="548.735" y="22.3846" width="21.2278" height="20" fill="#D9D9D9"/>
<rect width="21.2278" height="4.61538" transform="matrix(1 0 0 -1 504.764 46.2307)" fill="#1E1E1E"/>
<rect width="4.54882" height="20" transform="matrix(1 0 0 -1 500.215 41.6154)" fill="#1E1E1E"/>
<rect width="4.54882" height="20" transform="matrix(1 0 0 -1 525.991 41.6154)" fill="#1E1E1E"/>
<rect width="21.2278" height="4.61538" transform="matrix(1 0 0 -1 504.764 21.6154)" fill="#1E1E1E"/>
<rect x="504.764" y="21.6154" width="21.2278" height="20" fill="#D9D9D9"/>
<rect width="21.2278" height="4.61538" transform="matrix(1 0 0 -1 460.792 46.2307)" fill="#1E1E1E"/>
<rect width="4.54882" height="20" transform="matrix(1 0 0 -1 456.243 41.6154)" fill="#1E1E1E"/>
<rect width="4.54882" height="20" transform="matrix(1 0 0 -1 482.019 41.6154)" fill="#1E1E1E"/>
<rect width="21.2278" height="4.61538" transform="matrix(1 0 0 -1 460.792 21.6154)" fill="#1E1E1E"/>
<rect x="460.792" y="21.6154" width="21.2278" height="20" fill="#D9D9D9"/>
</svg>
