<svg width="611" height="348" viewBox="0 0 611 348" fill="none" xmlns="http://www.w3.org/2000/svg">
<path d="M10.8407 23.4465L607.058 23.1689V344.277H10.8407V23.4465Z" fill="#1E1E1E"/>
<rect x="543.987" y="19.446" width="63.0709" height="3.72299" fill="#1E1E1E"/>
<rect x="543.001" y="15.723" width="60.1145" height="3.72299" fill="#1E1E1E"/>
<path d="M10.8407 70.6371H607.058V66.9141H10.8407V70.6371Z" fill="#1E1E1E"/>
<path d="M18.7246 15.723H599.174V12H18.7246V15.723Z" fill="#1E1E1E"/>
<rect x="607.058" y="23.1689" width="3.94193" height="321.108" fill="#1E1E1E"/>
<rect width="3.94193" height="321.108" transform="matrix(-1 0 0 1 10.8407 23.1689)" fill="#1E1E1E"/>
<path d="M10.8407 348H607.058V344.277H10.8407V348Z" fill="#1E1E1E"/>
<path d="M3.94206 12L11.8267 4H592.331L600.216 12V51V59H592.331H11.8267H3.94206V51V12Z" fill="#E650AC"/>
<path d="M3.99975 62.2368L600 62V336H3.99975V62.2368Z" fill="#6D68FF"/>
<rect x="596.274" y="8" width="3.94231" height="4" fill="#1E1E1E"/>
<rect x="592.332" y="4" width="3.94231" height="4" fill="#1E1E1E"/>
<rect width="3.94231" height="4" transform="matrix(-1 0 0 1 7.88436 8)" fill="#1E1E1E"/>
<rect width="3.94231" height="4" transform="matrix(-1 0 0 1 11.8267 4)" fill="#1E1E1E"/>
<path d="M3.94206 63H600.216V59H3.94206V63Z" fill="#1E1E1E"/>
<path d="M11.8267 4H592.331V0H11.8267V4Z" fill="#1E1E1E"/>
<rect x="600.079" y="12" width="4" height="324" fill="#1E1E1E"/>
<rect width="4" height="324" transform="matrix(-1 0 0 1 4.07928 12)" fill="#1E1E1E"/>
<path d="M3.94206 340H600.216V336H3.94206V340Z" fill="#1E1E1E"/>
<rect width="21.2278" height="4.61538" transform="matrix(1 0 0 -1 548.814 47)" fill="#1E1E1E"/>
<rect width="4.54882" height="20" transform="matrix(1 0 0 -1 544.266 42.3846)" fill="#1E1E1E"/>
<rect width="4.54882" height="20" transform="matrix(1 0 0 -1 570.042 42.3846)" fill="#1E1E1E"/>
<rect width="21.2278" height="4.61538" transform="matrix(1 0 0 -1 548.814 22.3846)" fill="#1E1E1E"/>
<rect x="548.814" y="22.3846" width="21.2278" height="20" fill="#D9D9D9"/>
<rect width="21.2278" height="4.61538" transform="matrix(1 0 0 -1 504.843 46.2307)" fill="#1E1E1E"/>
<rect width="4.54882" height="20" transform="matrix(1 0 0 -1 500.294 41.6154)" fill="#1E1E1E"/>
<rect width="4.54882" height="20" transform="matrix(1 0 0 -1 526.07 41.6154)" fill="#1E1E1E"/>
<rect width="21.2278" height="4.61538" transform="matrix(1 0 0 -1 504.843 21.6154)" fill="#1E1E1E"/>
<rect x="504.843" y="21.6154" width="21.2278" height="20" fill="#D9D9D9"/>
<rect width="21.2278" height="4.61538" transform="matrix(1 0 0 -1 460.871 46.2307)" fill="#1E1E1E"/>
<rect width="4.54882" height="20" transform="matrix(1 0 0 -1 456.322 41.6154)" fill="#1E1E1E"/>
<rect width="4.54882" height="20" transform="matrix(1 0 0 -1 482.098 41.6154)" fill="#1E1E1E"/>
<rect width="21.2278" height="4.61538" transform="matrix(1 0 0 -1 460.871 21.6154)" fill="#1E1E1E"/>
<rect x="460.871" y="21.6154" width="21.2278" height="20" fill="#D9D9D9"/>
</svg>
